<svg xmlns="http://www.w3.org/2000/svg" width="29.219" height="22.997" viewBox="0 0 29.219 22.997">
  <g id="camera" opacity="0.59">
    <g id="Groupe_830" data-name="Groupe 830">
      <g id="Groupe_829" data-name="Groupe 829" transform="translate(0 0)">
        <path id="Tracé_158" data-name="Tracé 158" d="M28.247,48.383a3.141,3.141,0,0,0-2.305-.972H21.331v-.056a2.494,2.494,0,0,0-.75-1.805,2.541,2.541,0,0,0-1.805-.75H10.443A2.561,2.561,0,0,0,7.86,47.355v.056H3.277a3.141,3.141,0,0,0-2.305.972A3.3,3.3,0,0,0,0,50.688V64.52a3.141,3.141,0,0,0,.972,2.305,3.3,3.3,0,0,0,2.305.972H25.941a3.141,3.141,0,0,0,2.305-.972,3.3,3.3,0,0,0,.972-2.305V50.688A3.141,3.141,0,0,0,28.247,48.383ZM27.775,64.52h-.028a1.8,1.8,0,0,1-1.805,1.805H3.277A1.8,1.8,0,0,1,1.472,64.52V50.688a1.8,1.8,0,0,1,1.805-1.805h5.36a.747.747,0,0,0,.75-.75v-.805a1.046,1.046,0,0,1,1.083-1.083h8.3a1.046,1.046,0,0,1,1.083,1.083v.805a.747.747,0,0,0,.75.75h5.36a1.8,1.8,0,0,1,1.805,1.805Z" transform="translate(0 -44.8)" fill="#f2f2f2"/>
        <path id="Tracé_159" data-name="Tracé 159" d="M118.833,130.8a6.828,6.828,0,1,0,4.833,2A6.845,6.845,0,0,0,118.833,130.8Zm3.777,10.638a5.364,5.364,0,0,1-7.555,0,5.31,5.31,0,0,1-1.555-3.777,5.428,5.428,0,0,1,1.555-3.777,5.31,5.31,0,0,1,3.777-1.555,5.428,5.428,0,0,1,3.777,1.555,5.31,5.31,0,0,1,1.555,3.777A5.2,5.2,0,0,1,122.61,141.438Z" transform="translate(-104.223 -124.828)" fill="#f2f2f2"/>
        <circle id="Ellipse_2595" data-name="Ellipse 2595" cx="1.361" cy="1.361" r="1.361" transform="translate(23.136 5.944)" fill="#f2f2f2"/>
      </g>
    </g>
  </g>
</svg>
