<svg id="Carotte" xmlns="http://www.w3.org/2000/svg" viewBox="0 0 146.07 222.53"><defs><style>.cls-1{fill:#d29f8e;}.cls-2{fill:#8e5b50;}.cls-3{fill:#e5a495;}.cls-4{fill:#e0a193;}.cls-5{fill:#381c09;}.cls-6{fill:#ab7666;}.cls-7{fill:#fac0b2;}.cls-8{fill:#fcc4b3;}.cls-9{fill:#e4a394;}.cls-10{fill:#8c4645;}.cls-11{fill:#c9887e;}.cls-12{fill:#c48e80;}.cls-13{fill:#452c22;}.cls-14{fill:#fbc0b8;}.cls-15{fill:#f9b3a9;}.cls-16{fill:#472406;}.cls-17{fill:#754c24;}.cls-18{fill:#b37365;}.cls-19{fill:#7f4c40;}.cls-20{fill:#44221c;}.cls-21{fill:#a16b5e;}.cls-22{fill:#c18579;}</style></defs><title>Carot</title><path class="cls-1" d="M212.58,280.57s18.41,26,27.31,32.85c-.93-.72,13.65,17.23,11.15,1.45,0,0-4-20.79-3.29-22.18s-4.1-14.63-4.8-16.2-10-13.24-10-13.24h0a19.3,19.3,0,0,0-9.13-6.82,19,19,0,0,0-8.31-.92l-1.85,3.69-2.48,15.48,1.44,5.89" transform="translate(-199.48 -106.54)"/><path class="cls-2" d="M292.73,306.67l11.75-8.46-19.17-6.58-36.12-10.32s-2.25,10.14-2.25,10.4,4.24,12.3,4.5,12.56,6.06,4.59,7,5.2,15.07,2.08,15.72,2.25,5.5-.35,7.14,0S292.37,307,292.37,307Z" transform="translate(-199.48 -106.54)"/><path class="cls-3" d="M204.33,219.31l-.44,12.93.22,2.6,3.33,7.51a19.49,19.49,0,0,0,2.95,2.08,12.13,12.13,0,0,1,2.6,2.42l2.71,1.27,8.2,7.27,8.83,10.86L261.32,285l13.61,5.54s-.85-15.6-1.26-15.59-3.52-13.68-3.52-13.68l11.6-8.14,13-7.26,10.1,5,12.59.92,14.2.82,1.59-10.74-6-3.12-3.66-8.83,16.94-1.56v-9.15l.64-1,.54-1.26-.45-.47-.44-1.41L336,205.45l5.68-3.9,2.75-1.3-.43-3.81L337.44,190l2.11-2.9,2.16-2.21.93-1.9s-.09-1.56-.52-1.82a7.75,7.75,0,0,1-2.25-1.47c-.52-.69-1.56-2.34-1.91-2.95s-1.12-2.51-1.38-3-1-2.25-1.3-2.68-2-3.55-2-3.55l-.4-2.17v-1.9l-7.26-5.37-33.68,1.55-39,9.53L206.4,207.62Z" transform="translate(-199.48 -106.54)"/><path class="cls-4" d="M340.53,249.33l2.37-4a29.37,29.37,0,0,0,1.56-3.29,9.7,9.7,0,0,1,0-2.77,18.07,18.07,0,0,0,.43-2.51c.09-.52,1-1.2.48-1.88a1.43,1.43,0,0,1-.35-1.3l-17.77-3.06s-3.66,2.48-3.66,3.06.08,5.08,0,5.6,3.66,2.51,3.66,2.51Z" transform="translate(-199.48 -106.54)"/><path class="cls-5" d="M212.29,208.92l1.56.17.47,2.87,1.84.54,2.66,2.5a13.38,13.38,0,0,0,1.85,1.88c.34.12,1.73,1.39,1.73,1.74v.69l1.15,1.21a12.48,12.48,0,0,1,3.21,1c.49.46,2.57.81,3.26,1.16s2.89,1.5,3.23,1.61,1.27-1.5,1.27-1.5l1.74,1.51s-.23,1.26.46,1.26,1.85.58,2.31,0,2.31-2.07,2.31-2.54a26.89,26.89,0,0,1,0-3.11,18.48,18.48,0,0,0-.46-3c-.12-.8-.47-2.31-.58-2.94s-.7-9.76-.7-9.76l4.39-1.73,5.78-2.89.81-.3.26-3.86,1.55-.47.48-1.65-1.46-.7-2.13-3.07-.58-7.13-6.29-.17-1-3,.8-1,3.87-6.59,3.24-1.3s1.27-1,1.56-1.27l1.73-1.56,2.65-1.27s3.76-.8,4-.8l9.87-.23,3.41-.76c.11,0,3.49-1.29,3.49-1.29l2.2.23,1.81,1.21c.09.06,4.42.17,4.42.17l2.2-1.61,1.21-3.53,5.37,2L297,161l4.47-.23,6.61-.81s1.45-.81,1.62-.86,10.91,0,10.91,0l3.35,2.48,9.27,2,1.65-4.47-1.28-5.14-4.76-4.71v-4.39l-5-6,.35-5.23-9-7.91-7-1.33s-3.46-1.61-3.58-1.79-1.56-2-1.56-2,.18-1.54,0-1.35-3.52,2.1-3.52,2.1l-.81-3.81h-2.94l-.52,2.54s-11.72-2.83-14.84-2.31l-2-3.17-3.06,1.61s-7.1-5.48-7.62-9.18l-1.85-.52s-4.1,6.82-8.84,7.8l-4.73,1-6.12.58-4.39-1.79-4.39.86-2.71-1.15-7.74,4-1.56,1.85.12,3.69-6.12,1.79-1.79,1,2.37,2.2.11,3.92S208.25,143,208.71,145.46l-.75,1-.69,3.68-2.08,2.17-1.3.95v3.47Z" transform="translate(-199.48 -106.54)"/><path class="cls-6" d="M321.94,292.18l.58.57a15.54,15.54,0,0,0-1,2.89,23.21,23.21,0,0,1-1.42,3.58s-2.57-2-2.71-2a7.66,7.66,0,0,0-2.45-.46,19.59,19.59,0,0,0-3.24.89c-.46.32-1,1.13-1.79,1.13s-3.75-.06-3.75-.06a12.54,12.54,0,0,0-1.67-.55c-.26,0-1.07.23-1.39.23s-2.14-.63-2.66-.75a39.87,39.87,0,0,0-3.81-1.5,28.77,28.77,0,0,1-4.07-1.6H281l-2.31-1.2-.81-.87s-9.76.46-9.76.23a13,13,0,0,0-1.9-1.73,1.73,1.73,0,0,0-1.39-.46c-1,0-5.89-.46-5.89-.46l-4.5-4.16s-.93,4-.93,4.16a10.61,10.61,0,0,1-.92,1.44s.17,1.68.52,1.85a28.54,28.54,0,0,1,2.19,2s1.1,5.08,1.16,5.26,1.09,1.67,1.21,1.84,3,1.79,3.29,2,5.66,3.11,5.89,3.29,2.71,1.44,2.71,1.44,7.68,3.35,13.72,1.5l6-1.84s1.68-.76,2-.87a13.53,13.53,0,0,0,1.51-1.27l-1.33,3.69s-10.34,17.21-16.86,18.37l-9.53.34-10.22-6.93-2.54-.17a20.67,20.67,0,0,0-2.25-1.16c-.35-.05-2.2-.23-2.2-.23l-1.84-.17-4.33-4.56.57-1.33a12.47,12.47,0,0,1,1.85.35,4.44,4.44,0,0,0,1.5.34,8.28,8.28,0,0,0,2.2-1.21l2-.75-1.62-1.33h-2.31l-.52-5.31,1.1-.06L242,299.74l2.83-.06-3-2.88-.75-6.18-6.06-7.24v-3.79l-1.9-2s-.52-5.57-.47-5.74-3-4.44-3-4.44-.4-3.35-.4-3.53-4.45-3.63-4.45-3.63l-4.21-.58-2.26-1s-.63.46-.63.63-.29,2.49-.29,2.49a16.28,16.28,0,0,1,1.5,1.44,18.57,18.57,0,0,1-.06,1.91l-2.42,1.15a12.64,12.64,0,0,0-1.62-1.21,21,21,0,0,0-1.56,2.6s-1.15.27-1.15.63a21.12,21.12,0,0,0,1.27,2.77v8.09a25,25,0,0,0,1.44,2.54l-.86.23s-3.81-6.12-3.81-6.35-1-4.16-.87-4.39,2.37-5,2.37-5,.23-3.75.63-4.21a40.28,40.28,0,0,0,2.43-4.27c.17-.47.57-4.28.57-4.51s.06-3.69.06-3.87.06-1.21.29-1.21,2.14.23,2.66.35a5.72,5.72,0,0,0,2.48-.35c.29-.23,3.81-1.67,3.81-1.67a14.29,14.29,0,0,1,2.08.8c.11.18,2.37,8.84,2.37,8.84l6.12,8.26s3.87,2.36,3.92,2.54a13.41,13.41,0,0,0,2.49.4l-2.31-2.42.28-2.89,2.49.4,3.58,4.16,2.48,1.73s5.2.52,5.43.69L273.09,284l1.51.12.17-.52s-4.91-3.87-4.91-4.1.17-6.06.17-6.06l.52-.64s-1.79-.57-1.9-.86-1.56-3.29-1.56-3.29l-5.54-5.49L260,260.77l.76-2.31,2.88-6.71s3.7-1.15,3.93-1.15l14.84-.4,6.7-4,11.43-11.78,1.44-.9,2.37,1.3.06,1.85L302,238.36l-.46,5.89,8.32,4.16L311.9,247l4,.12s3.81,1.5,4.1,1.67,1.53,1.39,1.53,1.39l4.47.4,3.41-.63,1.21-3.06.35-1.45v-7l.69-.63,1.59.34,7.3,11.2-4.5,5.89-13.22,18.65Z" transform="translate(-199.48 -106.54)"/><polygon class="cls-7" points="130.7 168.07 126.45 177.81 124.91 182.63 123.04 186.21 115.8 176.08 127.78 166.72 130.7 168.07"/><path class="cls-8" d="M344.46,200.25,341,204.76l-2.08,1a.83.83,0,0,0,0,1.38c.86.7,2.11,1.74,2.79,2.43s.11,1.58.39,2.35-.1,1.81,0,2.33-1.28.71-1.28.71L337,213.59a49.17,49.17,0,0,0-4.85,1.41c-.52.32-.52,1.71-2.25,1.88s-2.37-.69-2.66,0-1.76,1-1.76,1-2-2.38-2.34-2.92-1.73-.2-.86-2.27,1.07-3.47,2.09-4.51-.53-1.21,2.07-1.9a17.36,17.36,0,0,0,2.59-.7,14.68,14.68,0,0,0,3.29-1.21,22,22,0,0,0,2.6-2.08,12.65,12.65,0,0,0,1.91-2.08h7.62Z" transform="translate(-199.48 -106.54)"/><path class="cls-7" d="M323.93,282.94h1.13v-2l.43-3.38H306.93L299.31,279s-2.54,7.74-1.62,7.85,13.8,2.31,13.8,2.31Z" transform="translate(-199.48 -106.54)"/><path class="cls-9" d="M279.45,264.92v-2.31h-3.24l-2.54,2.31v7.62l2.89.93a15.93,15.93,0,0,0-1,3.46v.93l2.31,4.15s1.62,1.16,1.62,2.08-1.16.46,0,1.85,1.15,3.23,3.69,3.7,4.16-.7,5.77,0,3.24.69,3.24,1.38,2.77,2.54,2.77,2.54H303c2.31,0,2.77-.46,4.39,0a20.39,20.39,0,0,0,3.93.93,17,17,0,0,0,3.69,0s0-.7,2.31-1.16,3.93-.69,4.62-1.15.93-1.16,1.62-1.85-.69-1.39,0-2.54a3.31,3.31,0,0,0,.2-2.54s1-2.31.17-2.31a15,15,0,0,0-2.91.69l-3,2.77a7,7,0,0,1-2.31,1.16,4.15,4.15,0,0,1-2.54-1.16l-2.08-2.08c-1.85-.46-3.24-1.61-3.24-.23v1.39a12.33,12.33,0,0,1-3-.69c-.92-.47-2.08-.93-2.08-.93s-2.54,0-1.38-1.15-.7-.23,1.15-1.16-2.31-1.15,1.85-.92a32.68,32.68,0,0,1,5.08.46l1.62.23,2.31-2.72a4.35,4.35,0,0,1,1.61,0c.7.18-.92.41.7.18a16.62,16.62,0,0,1,2.77-.18c1.85-.05,3.23,0,3.23,0a1.64,1.64,0,0,0,1.16,1.1l.92.24.47-1.34,2.3-1.9v-1.38a6.47,6.47,0,0,1,2.08-.7c1.85-.46.92.93,1.85-.46s.69-2.08,1.38-3.23,2.08-3,2.08-3.7-.46-1.85,0-2.77-.92-3.23,0-4.39,0,.7.93-1.15a12.91,12.91,0,0,0,1.15-3.7l-3.93,4.16a7.52,7.52,0,0,1-1.84.46,6.36,6.36,0,0,0-2.78.93c-.69.46,1.16-.7-2.07,1.15l-3.24,1.85a9.33,9.33,0,0,0-3,.92,28.52,28.52,0,0,0-2.77,1.39l-.93.69h-3.92s.92-1.39-1.39-1.39-2.31.24-3.69-.23a19.61,19.61,0,0,0-4.39-.46,8.4,8.4,0,0,1-2.77,0c-1.85-.23-1.62-.92-3.93-.46a32.66,32.66,0,0,1-5.31.46,4.31,4.31,0,0,0-1.85,0c-.92.23-.23.69-3.46.69h-3.24Z" transform="translate(-199.48 -106.54)"/><path class="cls-10" d="M286.26,259.06l-2.17,2.43-.86,1.73v1.21l4.38.56s26.71,3.6,26.8,3.25,7.1-4.58,7.1-4.58l-.87-2.09-3.12-.6-7.7-.44-1.13-1.47h-3l-1.91,1.56H291.28l-1.12-.78-1.48-.17-1-1.56Z" transform="translate(-199.48 -106.54)"/><path class="cls-11" d="M297.49,251.75l-5,1.51-1,.81s.23.11.8.46a10.61,10.61,0,0,0,2.21.69,2.63,2.63,0,0,1,.57,1.16,10.6,10.6,0,0,0,.57,1.73c.12.46.18.92,1.88.92h4s-.46-2.54-.46-2.88-1-1.39-1.15-1.85A17.84,17.84,0,0,0,297.49,251.75Z" transform="translate(-199.48 -106.54)"/><polygon class="cls-12" points="126.01 147.64 122.03 149.37 122.03 150.87 122.03 151.57 124.02 151.57 126.01 150.41 127.78 149.6 127.32 147.64 126.01 147.64"/><path class="cls-13" d="M327.75,210.05l-3,1.56s1.7,1.38,1.76,1.9.58,1.39,1.27,1.39-.35,1.21,2.08,0a16.12,16.12,0,0,0,3.46-2.16,1.68,1.68,0,0,1,2-.61c1.15.52,2.71,1.21,3.23,1.38a9,9,0,0,0,1.91.18V212s1.21-.17,0-1a15,15,0,0,0-5.14-1.55h-3.7C331,209.36,327.75,210.05,327.75,210.05Z" transform="translate(-199.48 -106.54)"/><path class="cls-14" d="M328,232.3c-.17.87-1.32,1.39-.75,2.25s1.45,1.73,2,2.43,1.56.86,1.56,1.73.69,1.9.86,2.94-.17,1.56,0,2.26,0,1.38-.69,1.55-1.56-.69-2.25,0-3.47.22-5.2,0-4-2.8-5.2-3.14-4.5-1-4.5-1l-.87-2.25s-1.38-.35,0-.87,3.12-1.39,3.82-1.56a4.44,4.44,0,0,0,2.25-2.08c.17-.69,0-6.58,0-6.58l-2.77-2.6s-1.39-.69-1.39-1.38a16.68,16.68,0,0,1,.35-4.16c.34-.69,1.73-3,1.73-3s-.69-1.17,0-1.88,2.94-1.06,2.94-1.06a25.63,25.63,0,0,0,1.65,4,7.34,7.34,0,0,1,.5,4.16c-.24.69-1.31,1.56,0,2.6s1,2.42,2.37,3.12a11.8,11.8,0,0,0,2.87,1.21c1.27.35,2.78-.69,4.45-1.56s3.52-.87,4.33-1.91,1.85-1.55,2.71-2.77a11.66,11.66,0,0,0,1.39-2.94s.17-1.21.87-.35,2.07,2.25,2.42,3.47a34.62,34.62,0,0,0,1,4.67,11.57,11.57,0,0,1,.87,4.85,22.42,22.42,0,0,1-.87,2.6,9.49,9.49,0,0,1-2.75.17c-2.45,0-2.45.7-4.52-.17s-2.71-1.21-4-1.73a27.87,27.87,0,0,0-3.67-1Z" transform="translate(-199.48 -106.54)"/><path class="cls-15" d="M278.46,232.24s-1.56,1.21-1.5,1.5l.23,1.1h6.07v-1.79l-3.15-.29Z" transform="translate(-199.48 -106.54)"/><polygon class="cls-16" points="83.78 44.69 84.53 48.67 87.48 51.1 90.94 51.1 91.98 51.1 93.71 47.9 91.98 45.9 88.75 44.69 85.05 43.65 83.78 44.69"/><path class="cls-16" d="M223.73,144.3v2.26l-1.56,1.38v2.25c0,1.22.34,1.74,1.56,1.74H227l1.21-1.74,1.73-2.07-1.21-3.82-2.68-.69Z" transform="translate(-199.48 -106.54)"/><path class="cls-16" d="M240,121.61l-6.06.87s-2.26.69-2.26,1.38v3a18.59,18.59,0,0,1,4.16,1.56c.87.69,2.08,1.9,2.6,2.25A6.11,6.11,0,0,1,240,132c.35.52-2.08,1.21,0,1.38a27.59,27.59,0,0,0,4.16,0s-.52-1,1.21-1,4.16,0,4.5,1.12-1.73,2.35,0,2.35,3.12-2.43,3.29-2.95-.52-3.81,0-4.67,1.91-2.08,2.26-2.78.86-2.94,0-3.81-1.39-2.08-2.6-2.25a23.61,23.61,0,0,0-3.47,0c-1.38,0-3.63.87-4.33.87A49,49,0,0,0,240,121.61Z" transform="translate(-199.48 -106.54)"/><path class="cls-16" d="M259.41,115.38H262s2.6-2.95,3.29-2.95,2.25,1,2.25,1.47a27.31,27.31,0,0,0,0,3.73c.17.52,3.64,0,3.64,0v3.46h-7.45s-.35-2.77-.87-2.94a27.39,27.39,0,0,0-3.46-.17Z" transform="translate(-199.48 -106.54)"/><path class="cls-16" d="M240.53,143.61l-2.43,2.25-2.25,1.91a11.52,11.52,0,0,0,0,2.42,25.52,25.52,0,0,1,2.3,1.74,1.45,1.45,0,0,0,1,0c.7-.18-.52-1.56,1.39-1.74a17,17,0,0,1,3.27,0,11.2,11.2,0,0,1,1.58-2.42,23.73,23.73,0,0,1,4-.87l.7-3.29-.87-2.6h-2.77l-.35,2.6Z" transform="translate(-199.48 -106.54)"/><path class="cls-16" d="M204.33,156.6l-2.26,2.08v5.37l-.86,27.54s-1.73.52-1.73,1.22v5.37h1.38l-.34,4.33.34,7.44,1,10.57s3.12-.69,2.43-1.21-.18-10.57,8-10.39l4-1.56-.87-3.81s-2.94-4.51-3.12-5-.52-2.6,0-3.29,2.6-4.16,2.6-4.16l1.39-1.38V197s.86,2.77,1.73,3.29,3.64,1,4.16,2.26a4.55,4.55,0,0,0,1.73,1.9l1-1.9a28.17,28.17,0,0,0,1.13-4,9.51,9.51,0,0,1,1.29-2.94l3.47-7v-7l-4.76-.87,6.66-.87,1.22-2.42a22.55,22.55,0,0,1,.86-2.6c.35-.69,0-4.5,0-4.5l.16-1s1.06-3.12,1.75-3.12a2.27,2.27,0,0,1,1.73.52,4.27,4.27,0,0,0,2.08.52l1-.69s-1.73-3.12-1.73-4,.34-3.63.34-3.63l3.62.51,7.81.52,2.43-2.25-6.93-3.72s-2.82-.61-3.31-.61h-8s-6.15,1.91-5.81,2.6-7.79,7.8-7.79,7.8l-1-3.3-2.6-2.77-4.33,1-2.6-1a3.88,3.88,0,0,1-2.94,0A16.32,16.32,0,0,0,204.33,156.6Z" transform="translate(-199.48 -106.54)"/><path class="cls-16" d="M262.12,134.37l4.85-.63a5,5,0,0,1,1.79-.75h2.72c.23,0,1.79-1.5,2.13-1.5a19.79,19.79,0,0,1,2.72.46c.29.11,2.42,1.21,2.77,1.44s1.1,1,.81,1.45a26.22,26.22,0,0,1-2.37,2.25,18.37,18.37,0,0,0-2.89-1.56,12.79,12.79,0,0,0-3.46.63c-.46.35-2.89.58-2.95.93s-.28,1.21-.57,1.21a16.39,16.39,0,0,1-3.35-.69,7.71,7.71,0,0,0-1.73-.81c-.41-.06-1.1-1-1.1-1Z" transform="translate(-199.48 -106.54)"/><path class="cls-16" d="M290.47,139.34l-.42.2-1.83.84s1,1,1.13,1.27.14,1,.83,1.27,4,.69,4.39,1a10.13,10.13,0,0,0,2.37,1.85,18.29,18.29,0,0,1,2.37,1.21l4.21-2.6a10.62,10.62,0,0,0,2.08-.92,3.28,3.28,0,0,0,1-1.73c.23-.87-.63-7.39,0-7.22s2.77,5.65,3.06,6.23.81,2.08,1.79,2.08a10.76,10.76,0,0,0,2.83-.75s.69-2.19.23-2.54a35.2,35.2,0,0,1-3.12-2.25,10,10,0,0,1-1.84-2.37c-.41-.92-1.91-3.06-2.08-3.4s-3.41-.52-4-.52-1.56-.52-1.62,0,1.56,2.94,1.79,3.23a3.09,3.09,0,0,1,.46,1.91,6.19,6.19,0,0,1-.29,2.74,4.73,4.73,0,0,1-1.9,1.3,9.36,9.36,0,0,0-2.14,1.85s-1.27.05-2.14.05-.63.12-2.25-.81-3.29-1.21-3.41-1.5S290.47,139.34,290.47,139.34Z" transform="translate(-199.48 -106.54)"/><path class="cls-17" d="M325.58,148.46a6.92,6.92,0,0,1,0,1.39c-.09.34,1.13,1.12,1.3,1.56a23.69,23.69,0,0,0,1.12,2.51,15.55,15.55,0,0,1,1.74,2.51,8.53,8.53,0,0,0,.86,2.34,15.94,15.94,0,0,1,1.13,1.73s-.09.43,0-.61.86-1.29,0-2.51a21.76,21.76,0,0,1-1.73-2.85c-.26-.52-.18-1.39-.7-1.91s-1.38-1-1.73-1.47-1.12-1.56-1.3-1.82S325.58,148.46,325.58,148.46Z" transform="translate(-199.48 -106.54)"/><path class="cls-18" d="M264,205.45v7l-4.42,2.6v5.52l7.62,1s4.34.26,4.85.26,6.24,3.8,6.5,4a27.47,27.47,0,0,0,3,.7h13.6l7.36-3.9,8.32-2.08.43-4.55,5.37-5.93-6.58-3.29-4.25-1.3-7.35-.7-18.89-.51-.69,1.12Z" transform="translate(-199.48 -106.54)"/><path class="cls-8" d="M340.13,187.61l2.34,4.24s.69,2.17.95,2.77.61,1.82.61,1.82a13.64,13.64,0,0,0-2.86.87,4.89,4.89,0,0,1-1.91.95,28.49,28.49,0,0,0-3.81,0c-.6.18-2.31,1.39-3.32,1.56a20.13,20.13,0,0,1-3.29,0l-3.35-.43a6.72,6.72,0,0,1-1.9.51,12.62,12.62,0,0,1-3.21-1.29c-.26-.35-2.86-.17-3.12-.17a14.82,14.82,0,0,0-2.07,1.47l-2.34-1.82s-9.36.09-10,.17a12.72,12.72,0,0,0-2.69,2h-3.12l-2.85-.77s-2.6.34-3,.77a20.25,20.25,0,0,1-1.47,1.48s-2.34-.44-3,0-10.83.86-10.83.86l-2.16,1.65h-1.74a13.07,13.07,0,0,0,1.74-1.91c.08-.34.26-2.08.26-2.08s-.26-1.21-.09-1.47,1.65-2.25,1.65-2.25l.69-1.3,8.66.69.69,4.33h1.73l.61-1.81,1.91-.18s1.3-2.6,1.38-2.86l1-2.77-.51-2.68-4.51,1.64.26-1.12a28.36,28.36,0,0,1,2.86-1.56c.26,0,3.72.17,3.72.17l1.22.43,1-5.71h-3.56l-1.73.43.78-1.73h11.26l6.41,3.46,2.85-1,5.29-.09,2.08-1.12.78-1.3-5.8-6.84-3.73-2.34-1.38,1.47,3.89,5,.09,1.22-1.9.34-1.91-1.82-4.85-1.21-3.81-3.12L296.83,177l-6.33-.35-2.68-1.47-2.25-.7-.44-2.33,2.17-3.64h9.78l4.08,3.64,2.25.69,2.42-1.39,2.6-1.73.61-2.51.34-1.56,3.81-2.77,4.07,1.47a21,21,0,0,1,2.69,1.86,7.76,7.76,0,0,0,2.68,1.35c.44.08,3.3-1.65,4.08-1.35s3,.74,3.37.83l2.6.6.92,6.59v7.44l1.28,1.91a17.81,17.81,0,0,1,2.39,1.56C337.53,185.44,340.13,187.61,340.13,187.61Z" transform="translate(-199.48 -106.54)"/><path class="cls-19" d="M269.38,210.56h5.55s1.91-.87,2-.87H289.2l2.64,2.82-19.79,1L269,215l-3.37,1.88H264l.43,1.82,4.95.7s1.12,1.38,1.38,1.12A35.23,35.23,0,0,1,277,219h3.76l2.54-1.38s1.27,1.73,1.53,1.73h2a18.26,18.26,0,0,0,2.64-2.29l2,2.12s3.29.26,4.41.26,3.64-1,4.07-1a10.46,10.46,0,0,1,2.17.95s2.28-.87,2.74-.95,3.32-2.26,3.19-2.6a15.51,15.51,0,0,1,.56-2.95l2.26-.85-1-3L306.18,207l-4.25-.69-4.59-2.08h-5.19l-3.9,1.38-2.77.87H273l-3.12,1.3Z" transform="translate(-199.48 -106.54)"/><path class="cls-20" d="M273.67,215.5l.64,2.42h5.8s2.31-.34,3.15-.34,4.82-.26,4.82-.26l2.77-.61,2.42-.78v-2.86L290.42,212l-9.53,1.29L278.2,215Z" transform="translate(-199.48 -106.54)"/><path class="cls-21" d="M214.32,212l-.64,1.29H212l-1.55-.65-4.42.65s.08,3.63,0,3.63,0,2.78,0,2.78a11.91,11.91,0,0,1,1.47,1.47c.09.26-.43.17.09.26a5,5,0,0,0,2.55-1.56c.05-.35.22-1,.82-1s1.65-.09,1.74.26.17,1.47.17,1.47,1.56,1,2.17.87,1.12,1.12,1.12,1.12l-2.6.78-.86.78h-2.6v5.37l1,2.8v.93s1.44-.38,1.7-.93a8.48,8.48,0,0,1,2-2.36c.52-.26,1.81-1,1.81-1a1,1,0,0,1,1.13,1c0,1.12-.52,5-.52,5s0,.75.52.84,2-.09,2.34,0a10.59,10.59,0,0,0,2.34-.84s.26-1.7.34-2.6.26-4.36.44-4.62-.52-2.08,0-2.34a6.88,6.88,0,0,1,1.47-.69c.26,0,5.11-.26,5.37-.26a21.22,21.22,0,0,1,3.46,2.17,17.12,17.12,0,0,0,3.47,1.9,9.07,9.07,0,0,0,2.25.26,9.61,9.61,0,0,0,3-1.47c.17-.35,1-2.65,1.21-3.36a46.54,46.54,0,0,0,1.13-4.69c0-.35-.87-1.22-.87-1.22s-.69-11.86-.52-12.12a22.32,22.32,0,0,1,2.17-1.56,23.59,23.59,0,0,1,1.9-1.56c.35-.17,3.64-1.21,3.64-1.21l2.69-.52a29.15,29.15,0,0,0,3-2.34l1.64-3.38-.78-8.31s-1.29-3.81-1.29-4.16-2.52-4.42-2.17-4.76,0-2.43,0-2.43l-1.73-.43-1,1.47-3-.09.87-1.38s2.34-.87,2.51-1.3,1.39-2.69,1.39-2.69l2.08-1s4.07-.61,4.85,0,3.63,1.65,4,2.34,3.29,1.65,3.29,1.65,16.8-10,18.71-9.1c4.24-1.38,11-1,11-1l5.45,0L308,161.8l4.55-.43h3.72a16.07,16.07,0,0,0,2.86,0,8,8,0,0,1,2.84.26c0,.08,1.49,1.21,1.49,1.21l1.31-1.09-7.2-6.27-54.39,5.11-19.42,5.58s-14,39.28-14.27,39.71S214.32,212,214.32,212Z" transform="translate(-199.48 -106.54)"/><path class="cls-22" d="M325.49,217.92l-.37,2.31s.86,1.45,1,1.68a1.9,1.9,0,0,0,1.15,1.09c.75.23,8.49,1,8.32-1.79l-.17-2.77s.23-1.61.63-1.85,2.54-1.22,2.54-1.22l2-.48-4.33-2.49-9.93,3Z" transform="translate(-199.48 -106.54)"/><polygon class="cls-11" points="83.75 158.13 120.38 158.4 115.52 162.08 83.75 158.13"/></svg>