<svg id="Ligette" xmlns="http://www.w3.org/2000/svg" viewBox="0 0 147.67 230.19"><defs><style>.cls-1{fill:#6c4e37;}.cls-2{fill:#eabda7;}.cls-3{fill:#704a3b;}.cls-4{fill:#ad7f61;}.cls-5{fill:#e5aa89;}.cls-6{fill:#997454;}.cls-7{fill:#695337;}.cls-8{fill:#ae7768;}.cls-9{fill:#3c2720;}.cls-10{fill:#3a2822;}.cls-11{stroke:#000;stroke-miterlimit:10;}.cls-12{fill:#493328;}.cls-13{fill:#453022;}.cls-14{fill:#e29c79;}.cls-15{fill:#874436;}.cls-16{fill:#8e533e;}.cls-17{fill:#cd8672;}.cls-18{fill:#b9826d;}.cls-19{fill:#9d8a65;}.cls-20{fill:#eaae88;}.cls-21{fill:#ae7864;}.cls-22{fill:#a36e5f;}.cls-23{fill:#483720;}.cls-24{fill:#c38f6c;}.cls-25{fill:#b56c53;}.cls-26{fill:#c68163;}</style></defs><title>Ligette</title><path class="cls-1" d="M798.13,241s3.57,20.55,11.75,33.66c1.79,5.71,5.49,5.71,5.49,5.71l6.72,1.35,1.24,1.68h2l2-1.12s3.25-.56,3.59-.67,7.17-1.24,7.17-1.24l20.51-9.52v-3.7a14.69,14.69,0,0,0,2.24,0c.56-.11,11.88-8.63,16-8.52l3.81-4.26,1.21.34-1.65,2.91-.12,1.8s-6.94,10.2-9.63,12.1l-.56,4.71-3.93,1.23s-8.57,9.64-12.44,8.63-5.6,5.55-5.6,5.55l-4.82,5s10.26,11.77,10.59,16.47l10.42,3-22.35,3.19s-3.53-4.7-3.7-5.54-1.35-3.87-1.35-4.37-6-21.28-6-21.28,5.72,6.15,7.4,4l2.69-1.68,1.68.17,4.15-2.45s7.28-5.62,6.61-7l-.67-1.34-8.75,2.52-3.76-.17-3.13,1-1.85.34-3-.67L829.77,285h-5.55s.77-1.18-3.56-1-6.65,1.18-8.16-.59-2.62-8.82-2.62-8.82Z" transform="translate(-771.77 -89.14)"/><path class="cls-2" d="M800,241.33h-1.58c1.06,11,3.74,20.4,8.91,27.24,0,0,3.37,9.11,3.66,9.07s1.63,2.51,1.63,2.51a38.59,38.59,0,0,0,4.32-3.45c.78-1,7.06-8.58,8.35-9.81s4.2-6.84,4.48-7.85.39-13.22,0-14.12-3.53-5.94-3.53-6.84-3.7-7.47-3.7-7.47L811,231.3l-7.64,2.3" transform="translate(-771.77 -89.14)"/><path class="cls-3" d="M825.29,285s4.52.34,5.32,3.1l4.26,5.87,5.09.89,8.83-7.29,8.49-4.59v-5.38H846.53Z" transform="translate(-771.77 -89.14)"/><polygon class="cls-4" points="147.6 103.1 147.04 117.9 134.04 113.42 129.61 106.81 129.61 103.1 135.66 100.58 142.22 99.55 147.6 103.1"/><path class="cls-4" d="M864.06,316.14s15.64-7.73,14.63-14.79,6.39-36,6.72-36.82,6.06-28.24,6.06-28.24L879,232.09l-17.15,13.28-27.74,13.95-18,11.26-4,8.07,2.52,3.53,12.33,2L847.76,278l9.58,2.17-10.81,9.43L840,300.84l7.91,11.77Z" transform="translate(-771.77 -89.14)"/><path class="cls-5" d="M915.67,186.53s4.37,3.58,3.7,5.71l-4.82-1.56s-11.77,1.13-12.21,5.27c.89,2.69,4.93,2.39,4.93,2.39l2.46-3.07,3.59-.33s1,9.3,1.46,9.86,1.23,1.1,1.57.94,1.3-.27,1.6-1.05a49.43,49.43,0,0,0,.75-5.21l.11,7.57S910,226.93,904,228.75c-1.12,8.66-3.7,28.16-3.7,28.16l-13.73,27.63-1.34,3.6-3.45,10s-2.44,4.71-7.31,3.37l-6-.51-7.86,3.36v-3.19s-7.68-2.35-5.29-4.71,14.32-12.61,14.32-12.61l4.71-6.89s1.34-3.19,1.51-3.86,6-7.91,6-7.91v-2.52l.76-1.17,1.68-2.53-1-.84,2.86-3.36,1-3.53v-2.52l-.71-4.71s0-10.25-4.62,1.35l-4.46,7.39-2.68.54s-8.91,7.2-13.12,6.86c-2.69.34-2.18,5.72-5.38,3l-7.9-5.21-1.73,4.2-2.47,1s2.69,5,4.71,2.52l.5,1.18.73,2.85s-7.12,4.54-8.29,3.7c-2.53.34-6.06,3.53-6.06,3.53a9.23,9.23,0,0,1-2,.67c-.51,0-12.62,1-15.3-1.51l-6.22,2.52-2.19-11.76,2.69,1.68,3.65-2.19,2.92.17L822,265.2s9.24-3.19-.17-4.53l-5.55,2-2.41-1.17L811,260l-1.06-.33v-1.18l3.53.5,1.69,1.52a21.58,21.58,0,0,0,3.19-1,31.34,31.34,0,0,1,4-1.18s6.07-1.95-3.18-5l-3.88,1.48-1.85-.5-3.53-1V252l2.69-2.68,23.88,1.59-15.84-7.15s-7.36-4.27,0-9.28c6.76-5.18-8-2.07-8-2.07l-7.48.68s2.17,7.9,1.17,9.24l-1.92,1.35-1.85-.09-.89,2.27-.88.42-1.5-3.17-.85-1.79s-.93-1.09-.84-1.51,2.85-2.52,0-5.38l-.33-8.15-2.35-3.95s9.34-5.67,8.66-8,5.61-17.2,5.61-17.2l-24-20.16s-2.3-21.85,10.31-28.91L808.09,141l94.13,31Z" transform="translate(-771.77 -89.14)"/><path class="cls-6" d="M785.17,134s.1.29.29.78c1.23,3.21,6.1,15.16,10,14.63,4.52-.62,10.83,11.34,10.83,11.34l21.11,8.66s17.87,1,19.11,1.69,20.73,7.12,20.73,7.12L881.8,183l21.77-1.63,14.23-27s-.22-21.63-13.22-34.52S850,94.07,850,94.07l-13.43,2s-10.39.22-12.46,3-37.46,25.5-37.46,25.5Z" transform="translate(-771.77 -89.14)"/><path class="cls-7" d="M897.41,123.21l-.73-1.12-1.29,1.12,1,2.24s.11,8.52-5.49,3.37l.22-4.71-1-1.35-1-1.12-.67-.89s-1.79-1.57-4.26,3.58l-1.46.23-1-.12v-2.57a7.38,7.38,0,0,0-1.91-7.06l-1.34-2.69h-8.75l-1,.78L867,113s-15.35-8-20.5-7.28l-2.47-2.24v-1.91s3-2.76,3.11-2.76,3-1.93,3-1.93l.09-1.14-.72-.46s-9.49,4.33-9.58,9.92l-4.58.67-10.72,4.71a6.21,6.21,0,0,0-.29,1.51,1.2,1.2,0,0,0,1,.78,14.36,14.36,0,0,0,2.73,0,17.47,17.47,0,0,0,2.81-.95c.21,0,1.73.09,2.19.13s.84.76.84.82-10.55,3.26-6.22,4.81,4.66,3.07,4.66,3.07a42.74,42.74,0,0,1-2.77,3.7,28.53,28.53,0,0,1-3.91,1.85,4.71,4.71,0,0,1-1.85-.34,2.92,2.92,0,0,0-1.68-.84c-.46.09-2.56,1-2.69,1.43s-.46,1.43,0,1.43,1.26-.63,2.31-.63,1.18.46,2.65.46,2.06.59,3.24,0a7.25,7.25,0,0,0,2-1.39,15.37,15.37,0,0,1,3.41,0c.42,0,12.51-6.2,12.51-6.2l3,1.12.23,2.46,2.57.67-.11,1.57h-4.7l-3.48,2.47v1.23a3.57,3.57,0,0,1,1.35.23c.33.22.44,1.68.44,1.68l-1.45,1h-3.25s-2.13.78-2.13,0-1.68-1.57-1.12-2.25.89-.67,1.12-1-1.46-.9-1.46-.9-1.34-.67-1.79-.34a19.2,19.2,0,0,0-1.68,3.48,16.86,16.86,0,0,1-1.8,2.91,19.85,19.85,0,0,1-2.57,0l-2.81,2.69-.67,2.58h-1.45s-1.13-2.47-.34-2.69a11.38,11.38,0,0,0,3.47-2.69c0-.34-.44-2.91-.44-2.91l-3,.11-2.8,2-1.44,2.92-1.25.22v-2.69L815,133.3l-1.45.11a21.75,21.75,0,0,0,0-2.69c-.12-.34-1-2.24,0-2.13s4.26,1.35,4.48.34,2.13-4.15,2.13-4.6-1.12-4.48-1.12-4.48h-2.8l-6.62,5L808,125l-5,11.44-.56,5.6s2,.67,2.35,0a74.24,74.24,0,0,1,6.73-6.61,9.3,9.3,0,0,1,1.57-.11l.44,1.9s-3.13,1.46-3.13,2.13.11,4.48.11,4.48l1.46,1.91-.34,3,.56,1.51h1.79l2.36-.56a19.5,19.5,0,0,0,3.13-1.57l1.24-3.47,1.23,4.09.22,1.06-.44,1.24s-.23.78.22.78h2.35l1.46-1.46a10.7,10.7,0,0,0,1.12-1.62s5.72,5.21,7.85,4c1.34-1.46-1.8-2.81-1.8-2.81l-1.34-2s0-2,2.52-.34l2.52,1.68,2.47-.5,1.34-2.3s3.36-.22,3.7-.22a4.87,4.87,0,0,0,1.91-1.8c0-.33,1.56-1.12,1.9-1.23s.11-1.9.11-1.9l-2.24-1.46-3.25-.67-1.34.56s-4.15.56-4.15.89.45,1.8-.22,1.8-3.37.11-3.7,0a15.91,15.91,0,0,1-1.46-.79l1.57-3.47,2.35-1.57s3.48.22,3.81.22a49.64,49.64,0,0,1,5.72.11,13.45,13.45,0,0,0,3.25,1c.56,0,5.83-.22,5.83-.22l-.12-2.91,1.57-1.8,5.16-.33s.45-1.57.78-1.57,2.36.11,2.36.11l1.9,8.4,3,1s-.56,1.12.33,1.35,1.91-3.14,1.91-3.14l2.58,1.9s2.35-3,2.69-3h2.57l1,6.72,4.37,3.59.79,6.61v3.59l2.46-7.06,6.06,7.06,1,6.5.68-.9-.23-17.48-1.34-1.91,1.34-3.36,1.63,1.79v9l1.4,5.6.78-4.37,5,9.3,3.25.12v5.82l-2.25,4.4.9,2.66,1.35-4.48,2.24-.45v-11l1.68-.45,1.68-5.27h5l-.67,6.73-.9.9v7.5a5.23,5.23,0,0,1,1.57.68c.34.33,0,17.7,0,17.7H907.16s-8.77,3.55-9.19,3.7-10.43-.11-10.43-.11h-2.46l-2.19-2.48V177.62l-5.66-8.46-.22-3.25-3.7-.9-1.32-1.9V160l-3.27-1.57-4.38-2.8-.56,4.93h-1.45l-2.17-1-2-1.23-2.89-5.38-1.14.67-2.58-1.23-5.83-.9-9.08,4.93-10.76.56-1.23.9-4.37-.9L810.44,154,800,148.09s-9.76-6.05-9.69-8.85l-.72-6.39-2.46-1.68-2,2.13-2.55-.23-.53-4.59-.79-4.6-1.68-1.9v-6.5l3.47-4.71,5.94-.22,8.52-7a9.78,9.78,0,0,0,9.78,4.82l7.14-6.28L815,98l9.08.33.11,2.8-21.51,15.13.33,1.12,2.69.12-1.85,4-2,2.24.23,1,1.73-.45,3.45-4.14.64-2.47,1.19-.22,3.18-1.46,1.69-5.27,14.45-9.41L827.92,99l1.85-1.34,1.4-.56,2.24.45,2.47.78-.34-2.24,7.29-5.15h1.57l2.91.89,1,.11,1.9-2.24,1.8.79.22,1h3.36l3.7-2.36h2.58c.34,0,1.79,2.13,1.79,2.13l4.82-.11,10,5.94,6,.45s-.45,3.36-.11,3.36,5.37,5.27,6.05,5.49,1.12.23,1.12-.11a13.94,13.94,0,0,1,.22-1.46l3.81.56,2.36,2.8.67,6.39,5.94,4.6.33,7.28-1.12.23.34,5.15.11,2.13s.11,1.79.45,1.91,1.34-.56,1.12.22.34,1.79,0,2.13-1.46,1.23-1.46,1.23l-.78,1.12h-.79a11.88,11.88,0,0,1-.33-2.13c0-.78-.45-4.48-.45-4.48l-1-1-2.69-2.46a21.39,21.39,0,0,0-.11-3.59c-.22-.78-1-3.14-1-3.14Z" transform="translate(-771.77 -89.14)"/><path class="cls-2" d="M783,182.93v3.43l.5.84-2.77,1.24-4,3.8.93,13.54,11.42,11.81s8.58,6.09,8.5,22.23h5.73l11.16-19.44,3.87-16.93s-6.33-18.71-6.67-19.27-10.2-8.74-10.53-8.74H785.57Z" transform="translate(-771.77 -89.14)"/><path class="cls-8" d="M850,202l2-3.66s1.38-3.36,4.07-.38a3.09,3.09,0,0,0,2.36-1l1.34-1.64.76-1.21v-1l-.38-2.32-5.8-.32-4.16,3.11Z" transform="translate(-771.77 -89.14)"/><path class="cls-9" d="M838,190.79s8.52,1.23,8.74,5l.22,3.81.9,6.62-.9,4.37.12,2.13.78.44,1.12-2.13v-2l1-6.17v-9.52h5V192l-.78-1.23h-4.48l-1.46-.9-5.49-.44-.79-1h-4Z" transform="translate(-771.77 -89.14)"/><path class="cls-10" d="M812.79,200.82c-.81.48-1.57.8-1.79-.73.09,1.73-2.33.65-4,.37l-1,2-.79,3.36c-.9,3-1.89,6.46-1.46,2.24h-1a28,28,0,0,0,.56-4c-.14-.37-1-7,.22-7.12-1.2,1.38-1.58.32-1.79-1.23l-1.57-2.46s-.56-.9.67-.9H808l1.46,2L810,193s0-.56.9-.67,1.79.11,2.8,0a7.1,7.1,0,0,1,2.35,0c.45.14.9,1,.9,1a12.61,12.61,0,0,0-1.79,7.45Z" transform="translate(-771.77 -89.14)"/><path class="cls-11" d="M808.47,197.21l-1.14,1.43s.76.84.92.84,2.74-.26,2.74-.26Z" transform="translate(-771.77 -89.14)"/><polygon class="cls-12" points="87.14 101.76 87.47 103.89 96.72 104.22 108.76 102.04 111.57 102.26 113.3 100.97 112.13 99.29 105.85 99.29 100.86 100.19 94.75 100.36 91.67 101.25 87.14 101.76"/><path class="cls-13" d="M888.66,188.44l4.15-1.24s.56-1.68,1-1.79a14.57,14.57,0,0,0,2.35-.78,5.32,5.32,0,0,1,1.35-.45l3.58.45a28.61,28.61,0,0,0,3.14,1.12,5.56,5.56,0,0,1,1.57.56l-1.12,1.45L898,190.23l-1.91.67a2.28,2.28,0,0,1-1.79,0,7.77,7.77,0,0,0-3-.89c-.67,0-3.7.11-3.7.11Z" transform="translate(-771.77 -89.14)"/><path class="cls-5" d="M790.31,217.71s10.71,1.55,11.34-5.53l-1.3-6.48-13.7-4.88,3.45,16.39Z" transform="translate(-771.77 -89.14)"/><path class="cls-3" d="M836.66,177.9l-12.21,2.92s-8,3.13,0,6.16l.11,1.57-8.29,3.14.67,1.68a41.07,41.07,0,0,1,4.93-.56c.78.11.34,2.8.34,2.8l1.79.67,4.26.93.45,2.27h1s4.7-.4,4.7-4h4.15v-2.8l-.56-1.91v-2.35l-1.35-1.35-.22-2.91-1.68-1.12-.11-1.35,1.45-.56L838,180Z" transform="translate(-771.77 -89.14)"/><polygon class="cls-10" points="8.99 99.29 21.69 99.29 21.69 101.51 8.99 101.51 7.82 103.1 5.88 103.53 5.88 112.52 6.89 113.36 7.14 115.29 5.88 116.64 4.04 116.64 2.44 112.27 1.6 111 1.93 107.97 0.93 105.63 2.1 104.53 0 103.44 0 101.42 2.1 99.55 8.99 99.29"/><path class="cls-14" d="M779.17,194.43s9.16.17,11.85,5l1.85,1.42,1.94-.08,1.59-1.34s1.15-6.9,3.73-6.22l2.15,2.86,1.6,2.94-.17,9,.17,3.45-1.68.75s-7.48-.59-7.9-6.47l-1.76-1.6-.59,1.6-.42,8.24.67,1.76-.67,1.43H790.1s-7.31,3.28-10.09-1.68l-1.26-6.39-.65-3.83-1.37-4.49v-6.64Z" transform="translate(-771.77 -89.14)"/><path class="cls-10" d="M803.35,211.74l.2,2.57,1.09.63s1.47.17,1.81-.21a11,11,0,0,0,.88-1.85c.08-.17.94-.9,1.14-1.14s1.46-3,1.46-3,1.18-.67,1.31-.71,2.22-.46,2.22-.46l-.37-4.88-.89-1.89-6.43-1.76Z" transform="translate(-771.77 -89.14)"/><path class="cls-15" d="M805.9,252.6s16.22-5.21,29.33.42c2.69,1,2.78-1,2.78-1l-.51-1.61s-3.86-2.17-4.11-2.34-4.54-1.68-4.54-1.68a11.59,11.59,0,0,0-3.11-.93c-1,0-5.47-.08-5.47-.08l-1.17,1.43s-1.6.92-2.69-.17-10.93-.08-10.93-.08l-.67,1.42s-1.5-.25-1.46.09a6.86,6.86,0,0,1,0,2.6C803,251.25,804.56,253,805.9,252.6Z" transform="translate(-771.77 -89.14)"/><path class="cls-16" d="M806.07,228.33c.22,0,2.22,1.85,2.4,1.85s.08-3.59,4.15-3.51a9.56,9.56,0,0,1,1.41.15c3.69,1.23,5.15,2,5.21,2.19s1,2,1,2,1.46.33,1.68.33,2.52-.28,2.52-.28.9.06.9.28-.45,1.8-.45,1.8l-1.57.84-1.57.45-2.69.28s-1.68-.73-2.07-.84-2.3-1.18-2.3-1.18l-.45,2v1.51l.12,3-.85,1.34-2.47.84h-1.06l-.77-3-.75-1.68L807.33,234l-3.45-2.08-.57-1.68-.3-.71-.47-1.14Z" transform="translate(-771.77 -89.14)"/><polygon class="cls-17" points="40.85 137.53 38.44 137.06 32.5 137.06 28.23 137.29 28.23 139.47 30.76 141.82 34.85 142.16 40.85 137.53"/><path class="cls-18" d="M818.34,228.47l5.66.28s3.36-3.89,2.91-5.91a9.72,9.72,0,0,1,4.15.67,5.25,5.25,0,0,1,.9,1.8c0,.56-1.35,1.36-1.35,1.36l-3.7,4-2.07,2.41-4.18-.51Z" transform="translate(-771.77 -89.14)"/><path class="cls-19" d="M790.31,178.21l-3.66,1.6-.42.75a10.5,10.5,0,0,0,2,.93,14.52,14.52,0,0,1,2,.67s1.89,1.09,2.65,1.43,1.19,1.6,1.19,1.6l-.69,2.45-9.92-.44,1.35-.75.75-.34.09-3.53-1.1.35H783l-.42-1.19s.67-.25.84-.67,1-7.48,1-7.48l1.17-3.87-.08,6.47Z" transform="translate(-771.77 -89.14)"/><path class="cls-20" d="M795.48,148s-12.67,7.55-9.92,28.15l6.39,2.1,3.53,1.35h1.85l2.67.84,2.54,2.19s6.14,8.14,5.87,9.57l-.28,1.44a14.78,14.78,0,0,0,.28,2.27c.14.08,5.52-1.14,5.52-1.14l1.64-2.57-2.65-4.91,4-3.19s16.53-12,28.38-5.13l.8,1.09-6.51.21s-2.82,2.57,3.57,4.79c6.6,2.31,11,5.58,18.22,5.53s13.59-.74,14.6-.74a34.2,34.2,0,0,0,4.88-1.2l2-.25V177s-7.73-4.54-7.9-7.23l-1.51-2s-2.58-3.69-14.57-4.2c-1.23-2.18-2.58-9.24-9.3-5.55l-5.55.68-4.54,1.17-7.56.34-1,1.18-14-.34-3-1-1.29-2.18Z" transform="translate(-771.77 -89.14)"/><path class="cls-21" d="M819.19,193l.21,2.91s.85,1.45,1.69,1.62,3.75,1.46,4.37,1.49,1.57-.32,2.35,1.09.9,2.35,1.57,3,1.85,1.68,2.13,2a3.28,3.28,0,0,0,1.79.95,16,16,0,0,0,3.2.62,35.33,35.33,0,0,0,4.87.37c1.18-.15,3.75-1.32,4-1.24s1.18-2.05,1.18-2.05l-1-1.23a23,23,0,0,1-2.64-.56,6.38,6.38,0,0,0,1.8-.73l-.28-1.73-2.58-.42-1.29,1.09H839.3a3.71,3.71,0,0,1-.51-1.09c0-.31.06-2.55.06-2.55l-.28-1-13.73-3.81Z" transform="translate(-771.77 -89.14)"/><path class="cls-22" d="M847.09,212.76l.78.44s-2.13,7.57-6.33,7.91-16.25.39-16.25.39-6.17,1.12-7.34-7.34l-3.14-2.58-.9-2.58-.45-1.41-1.79-8.22,2.24-.31,1.76-2.84,1.27,4.32,1.4,4.88,1.18,3.46s2.57,2.19,2.69,2.36a23.27,23.27,0,0,1-.62,3.08s1.85,4.88,9.3,4.26l7.45-.61,3.93-1.8,4.8-3.7Z" transform="translate(-771.77 -89.14)"/><path class="cls-23" d="M799.13,112.86l-4.66,3.82-2.19,2.19a8.1,8.1,0,0,1-.21,2.31,24.39,24.39,0,0,0-.37,3.87h1.89s2.06-1.81,2.27-2a17.18,17.18,0,0,0,2.14-1.81c.08-.25.25-2.35.34-2.52a25.84,25.84,0,0,1,2.1-2.39c.21-.13,2.77-2.27,2.77-2.27L802,111.72l-3.11,1Z" transform="translate(-771.77 -89.14)"/><path class="cls-6" d="M871.41,144.17l2.8,3s-3.37,6.39,2.13,9.53c-1.57,2.35-2.58,3.59,1.9,5.94l4.48,2.35.9,1.24v-2.36l-1.34-1.23-2.13-1.57v-1.34l2.13-.68-.12-10-3.36.45-1.29-1.91-1.51-.78-3-3.48Z" transform="translate(-771.77 -89.14)"/><path class="cls-7" d="M882.89,192.67s5.55,4,1.6,6.7l-1.85,2.54v2l-.84,4.46a15.24,15.24,0,0,1,1.82,2.26c0,.34,1.37,1.1,1.46,1.1s1.51-.51,1.51-.76v-3.94l.95-2.11.4-4.12s1.51-.17,1.51-.5v-8.16l2.52-.47,1.09,2.07a8.27,8.27,0,0,0,0,1.43,12.33,12.33,0,0,1-1.09,2.6s-.08,2.19,0,2.61.08,2.44.08,2.44a15.1,15.1,0,0,0,1.94-2c0-.25,2.27-3.87,2.27-3.87s.84-1.17,1-1.42a7.15,7.15,0,0,0,.42-2.61l-1-2-14.88-1.17Z" transform="translate(-771.77 -89.14)"/><path class="cls-24" d="M888.9,232.09c.13-.51.46-9,2.57-10.17l.25-4.37-2.82-.76a17.25,17.25,0,0,1-.67,1.68,16,16,0,0,0-1.77.42c-.21.13-3.06,1.18-3.06,1.18a18.73,18.73,0,0,1,0,2.6c-.13.21,1.68,1.94,1.68,1.94v3l-3.28,7s3.78,3.61,5.21,1.6Z" transform="translate(-771.77 -89.14)"/><path class="cls-25" d="M887.67,203.62l3.29,2.71,3.36-2.71,4.88,1.07,1.22-2,.75.46-2.52,8.11.3,3.66,2.22-.21s1.52-6.26,6.35-2.19c2,1.47,3,.72,3,.72s4.37-4.25.8-8.28l-4.79-3.36-5-2.86-3.5-8.49-10,1.18s-.27,11.73-.29,12Z" transform="translate(-771.77 -89.14)"/><path class="cls-26" d="M894.07,228l.76,1.62h1.85s.16-1,1-.81a17.2,17.2,0,0,0,2.47.3l.52,1s-2,1.93-2.1,2,.17,1.34-.34,1.51a24.32,24.32,0,0,1-3.27.4c-.51,0-2.86,0-2.86,0s-1.26-.65-1.26-.9a17.75,17.75,0,0,0,0-2.12,26.51,26.51,0,0,1,0-2.76s.33-1,.84-1h1.59Z" transform="translate(-771.77 -89.14)"/></svg>