<svg id="Calque_1" data-name="Calque 1" xmlns="http://www.w3.org/2000/svg" viewBox="0 0 698.97 698.97"><defs><style>.cls-1{fill:#151b31;}.cls-2{fill:#009380;}.cls-3{fill:#fff;stroke:#1d1d1b;stroke-miterlimit:10;stroke-width:1.13px;}.cls-4{fill:#e62354;}</style></defs><title>logo</title><rect class="cls-1" width="698.97" height="698.97" rx="194.99" ry="194.99"/><path class="cls-2" d="M447.18,80.6h85.34a84.9,84.9,0,0,1,84.9,84.9v0a84.9,84.9,0,0,1-84.9,84.9H362.28a0,0,0,0,1,0,0V165.5A84.9,84.9,0,0,1,447.18,80.6Z"/><path class="cls-3" d="M1026.13,913.16h27.67a0,0,0,0,1,0,0v122.19a15.81,15.81,0,0,1-15.81,15.81h-27.67a0,0,0,0,1,0,0V929A15.81,15.81,0,0,1,1026.13,913.16Z" transform="translate(1413.61 1313.81) rotate(180)"/><path class="cls-4" d="M845.8,1063.41H950.07a103.74,103.74,0,0,1,103.74,103.74v0a103.74,103.74,0,0,1-103.74,103.74h-208a0,0,0,0,1,0,0V1167.15A103.74,103.74,0,0,1,845.8,1063.41Z" transform="translate(1145.35 1683.78) rotate(-180)"/></svg>