<svg xmlns="http://www.w3.org/2000/svg" width="98.193" height="25" viewBox="0 0 98.193 25"><g transform="translate(-342.807 -33.337)"><g transform="translate(342.817 33.337)"><path d="M274.2,0h3.478a3.459,3.459,0,0,1,3.459,3.459h0a3.459,3.459,0,0,1-3.459,3.459H270.74V3.459A3.459,3.459,0,0,1,274.2,0Z" transform="translate(-259.719 0)" fill="#009380"/><path d="M.644,0H1.772V4.978a.644.644,0,0,1-.644.644H0V.645A.644.644,0,0,1,.644,0Z" transform="translate(12.692 13.04) rotate(180)" fill="#f2f2f2"/><path d="M4.226,0H8.475A4.227,4.227,0,0,1,12.7,4.227h0A4.227,4.227,0,0,1,8.475,8.453H0V4.227A4.227,4.227,0,0,1,4.226,0Z" transform="translate(12.691 21.992) rotate(180)" fill="#e62354"/></g><g transform="translate(142.814 -737.088)"><text transform="translate(223.186 792.426)" fill="#009380" font-size="16" font-family="Gotham-Bold, Gotham" font-weight="700" opacity="0.38"><tspan x="0" y="0">CollabyU</tspan></text><text transform="translate(221.186 790.426)" fill="#ec1d53" font-size="16" font-family="Gotham-Bold, Gotham" font-weight="700" opacity="0.37"><tspan x="0" y="0">CollabyU</tspan></text><text transform="translate(223.186 791.426)" fill="#f2f2f2" font-size="16" font-family="Gotham-Bold, Gotham" font-weight="700"><tspan x="0" y="0">CollabyU</tspan></text></g></g></svg>