<svg id="Calque_1" data-name="Calque 1" xmlns="http://www.w3.org/2000/svg" viewBox="0 0 525.88 539.77"><defs><style>.cls-1{fill:#009380;}.cls-2{fill:#f2f2f2;}.cls-3{fill:#e62354;}</style></defs><title>logo_flat</title><path class="cls-1" d="M355.64,0H441a84.9,84.9,0,0,1,84.9,84.9v0A84.9,84.9,0,0,1,441,169.8H270.74a0,0,0,0,1,0,0V84.9A84.9,84.9,0,0,1,355.64,0Z"/><path class="cls-2" d="M1026.13,913.16h27.67a0,0,0,0,1,0,0v122.19a15.81,15.81,0,0,1-15.81,15.81h-27.67a0,0,0,0,1,0,0V929A15.81,15.81,0,0,1,1026.13,913.16Z" transform="translate(1322.06 1233.21) rotate(180)"/><path class="cls-3" d="M845.8,1063.41H950.07a103.74,103.74,0,0,1,103.74,103.74v0a103.74,103.74,0,0,1-103.74,103.74h-208a0,0,0,0,1,0,0V1167.15A103.74,103.74,0,0,1,845.8,1063.41Z" transform="translate(1053.8 1603.18) rotate(-180)"/></svg>